<?xml version="1.0" standalone="no"?>
<!DOCTYPE svg PUBLIC "-//W3C//DTD SVG 20010904//EN"
 "http://www.w3.org/TR/2001/REC-SVG-20010904/DTD/svg10.dtd">
<svg version="1.0" xmlns="http://www.w3.org/2000/svg"
 width="246.000000pt" height="246.000000pt" viewBox="0 0 246.000000 246.000000"
 preserveAspectRatio="xMidYMid meet">
<metadata>
Created by potrace 1.14, written by Peter Selinger 2001-2017
</metadata>
<g transform="translate(0.000000,246.000000) scale(0.100000,-0.100000)"
fill="#000000" stroke="none">
<path d="M1560 1511 l0 -421 120 0 120 0 0 319 0 320 -120 101 -120 101 0
-420z"/>
<path d="M993 1893 c-7 -16 -19 -44 -27 -63 -8 -19 -24 -56 -35 -82 l-20 -47
-75 34 c-169 77 -406 88 -476 23 -25 -24 -26 -60 -1 -82 10 -10 50 -28 88 -41
57 -19 84 -22 163 -19 108 4 185 -11 328 -62 l93 -33 18 42 c10 23 37 84 60
135 l41 94 -65 64 c-37 35 -69 64 -73 64 -4 0 -13 -12 -19 -27z"/>
<path d="M15 1354 c55 -133 173 -202 472 -279 97 -24 163 0 163 59 0 47 -28
68 -107 82 -62 11 -342 84 -397 103 -33 11 -77 32 -98 46 -20 14 -40 25 -43
25 -3 0 1 -16 10 -36z"/>
<path d="M1109 1179 c0 -46 -3 -97 -5 -114 -8 -46 -60 -136 -109 -188 -71 -73
-248 -149 -405 -173 -151 -23 -381 -1 -554 52 -10 4 27 -39 83 -95 105 -104
105 -105 211 -116 30 -3 68 -8 85 -11 69 -12 314 -11 385 2 109 19 208 73 302
164 l78 75 0 211 0 210 -35 34 -35 34 -1 -85z"/>
<path d="M2290 895 l0 -165 -564 -2 -565 -3 47 -51 c26 -27 66 -71 90 -97 l42
-47 560 0 560 0 0 180 0 180 -85 85 -85 85 0 -165z"/>
</g>
</svg>
